<?xml version="1.0" encoding="UTF-8"?>
<svg version="1.1" xmlns="http://www.w3.org/2000/svg" width="1024" height="1024">
<path d="M0 0 C337.92 0 675.84 0 1024 0 C1024 337.92 1024 675.84 1024 1024 C686.08 1024 348.16 1024 0 1024 C0 686.08 0 348.16 0 0 Z " fill="#FDFEFE" transform="translate(0,0)"/>
<path d="M0 0 C4.11070314 0.19659885 6.38780861 2.91818472 9.25 5.625 C10.23778292 6.54740894 11.22606609 7.46928246 12.21484375 8.390625 C13.13394531 9.25171875 14.05304688 10.1128125 15 11 C18.66409514 14.2855434 22.3970616 17.49054625 26.1484375 20.67578125 C32.81121954 26.34171759 39.36544246 32.08550289 45.73706055 38.07885742 C48.72202686 40.90908092 48.72202686 40.90908092 52.14132309 43.16128254 C54.52747177 45.5218075 54.47909854 47.32759808 54.51632524 50.59569377 C54.50467387 51.36125395 54.4930225 52.12681414 54.48101807 52.91557312 C54.48443577 53.73076331 54.48785347 54.54595351 54.49137473 55.38584644 C54.49798174 58.12696952 54.47593153 60.86712092 54.45410156 63.6081543 C54.45297369 65.56916277 54.45360576 67.53017293 54.45587158 69.49118042 C54.45702202 74.82362444 54.43345938 80.15571056 54.40557575 85.4880712 C54.38061693 91.05744358 54.37822446 96.62682362 54.37347412 102.19624329 C54.3610281 112.74663941 54.32818445 123.29687028 54.28807616 133.84719354 C54.23506151 148.10106092 54.21342613 162.35497331 54.19006729 176.60891438 C54.15242424 199.07273343 54.07274415 221.53620371 54 244 C103.17 244 152.34 244 203 244 C203 248.29 203 252.58 203 257 C132.71 257 62.42 257 -10 257 C-10 249.08 -10 241.16 -10 233 C-10.99 232.67 -11.98 232.34 -13 232 C-14.82421875 230.00390625 -14.82421875 230.00390625 -16.6875 227.5625 C-17.31011719 226.75941406 -17.93273437 225.95632813 -18.57421875 225.12890625 C-20 223 -20 223 -20 221 C-20.66 221 -21.32 221 -22 221 C-22 232.88 -22 244.76 -22 257 C-38.83 257 -55.66 257 -73 257 C-73.66 260.3 -74.32 263.6 -75 267 C-76.1484375 270.21484375 -76.1484375 270.21484375 -77.375 272.9375 C-80.24711433 279.51447187 -82.73084955 286.19254864 -85 293 C-85.66 293 -86.32 293 -87 293 C-87.12689209 293.72469482 -87.25378418 294.44938965 -87.38452148 295.19604492 C-87.98109622 297.91387945 -88.80140772 300.28917773 -89.84765625 302.86328125 C-90.20537109 303.74951172 -90.56308594 304.63574219 -90.93164062 305.54882812 C-91.30482422 306.46083984 -91.67800781 307.37285156 -92.0625 308.3125 C-92.62807617 309.70952148 -92.62807617 309.70952148 -93.20507812 311.13476562 C-94.13283125 313.42478917 -95.06458001 315.71309996 -96 318 C-97.32 318 -98.64 318 -100 318 C-103.78973553 307.32151275 -107.51986143 296.62467501 -111.18133545 285.90155029 C-114.71692505 275.54934167 -118.25623197 265.19848576 -121.875 254.875 C-122.14256104 254.1113916 -122.41012207 253.3477832 -122.68579102 252.56103516 C-124.01769091 248.76925278 -125.36274321 244.98244715 -126.71875 241.19921875 C-126.99734863 240.41885254 -127.27594727 239.63848633 -127.56298828 238.83447266 C-128.08425639 237.37598768 -128.60842122 235.91853292 -129.13623047 234.46240234 C-130.37358335 230.99902313 -131.39830636 227.63115118 -132 224 C-134.59692833 226.28794535 -135.73068635 228.33569784 -136.9375 231.5625 C-137.27652344 232.45066406 -137.61554688 233.33882812 -137.96484375 234.25390625 C-138.30644531 235.16011719 -138.64804687 236.06632813 -139 237 C-139.66266369 238.66826229 -140.32925371 240.33497098 -141 242 C-141.66 243.65 -142.32 245.3 -143 247 C-144.32 250.3 -145.64 253.6 -147 257 C-206.73 257 -266.46 257 -328 257 C-328 252.71 -328 248.42 -328 244 C-271.24 243.67 -214.48 243.34 -156 243 C-151.545 232.11 -151.545 232.11 -147 221 C-144.4375 214.875 -144.4375 214.875 -143.328125 212.2265625 C-140.15241079 204.51144503 -137.08564468 196.75148905 -134 189 C-131 190 -131 190 -129.52734375 192.796875 C-128.98313921 194.1087597 -128.4546546 195.4272184 -127.9375 196.75 C-127.64004883 197.49314453 -127.34259766 198.23628906 -127.03613281 199.00195312 C-121.1249927 214.06485839 -116.15110894 229.50170599 -111.0546875 244.85546875 C-110.80944336 245.59374908 -110.56419922 246.33202942 -110.31152344 247.09268188 C-109.12058235 250.67983071 -107.93370741 254.26822553 -106.75488281 257.859375 C-104.622871 264.32711267 -102.42203192 270.72154297 -99.76806641 276.99682617 C-98.76251852 279.6193692 -98.29333251 282.21334119 -98 285 C-97.34 285 -96.68 285 -96 285 C-95.88269531 284.13890625 -95.76539063 283.2778125 -95.64453125 282.390625 C-94.9903505 278.94923781 -93.98078826 276.0012386 -92.6875 272.75 C-92.24277344 271.62335938 -91.79804688 270.49671875 -91.33984375 269.3359375 C-90.67662109 267.68464844 -90.67662109 267.68464844 -90 266 C-89.60941406 265.02289062 -89.21882812 264.04578125 -88.81640625 263.0390625 C-88.14662089 261.36582582 -87.47388452 259.69376427 -86.796875 258.0234375 C-85.10956177 253.73898527 -84.83109854 250.04641984 -84.79467773 245.49926758 C-84.78477814 244.73805099 -84.77487854 243.97683441 -84.76467896 243.19255066 C-84.73309271 240.67657582 -84.70831791 238.16058211 -84.68359375 235.64453125 C-84.66302174 233.90003468 -84.6420252 232.15554307 -84.62062073 230.41105652 C-84.56542558 225.81946833 -84.51600501 221.22783535 -84.46777344 216.63616943 C-84.41753976 211.95076511 -84.36186343 207.26542583 -84.30664062 202.58007812 C-84.19909032 193.38677432 -84.09763838 184.19341404 -84 175 C-87.96 175 -91.92 175 -96 175 C-96 193.48 -96 211.96 -96 231 C-98.31 231 -100.62 231 -103 231 C-103.28609131 230.21689453 -103.57218262 229.43378906 -103.86694336 228.62695312 C-106.48623618 221.46089426 -109.11265994 214.29752262 -111.74719238 207.13705444 C-113.36254471 202.74394492 -114.96370974 198.34590588 -116.55859375 193.9453125 C-117.33031859 191.83839124 -118.10243061 189.73161173 -118.875 187.625 C-119.21909912 186.66529297 -119.56319824 185.70558594 -119.91772461 184.71679688 C-122.07640918 178.87142277 -124.502479 172.497521 -129 168 C-131.33297433 167.95907063 -133.66705225 167.95758277 -136 168 C-138.83300048 172.80553021 -138.83300048 172.80553021 -141.125 177.875 C-142 180 -142 180 -144 181 C-144 129.85 -144 78.7 -144 26 C-119.0334375 25.9690625 -119.0334375 25.9690625 -93.5625 25.9375 C-85.69772827 25.92384399 -85.69772827 25.92384399 -77.67407227 25.90991211 C-71.2401123 25.90539551 -71.2401123 25.90539551 -68.22203064 25.90455627 C-66.12742398 25.9030271 -64.03281817 25.89952337 -61.93821716 25.89442444 C-58.75379929 25.88706431 -55.56943492 25.88609537 -52.38500977 25.88647461 C-51.46181977 25.8828765 -50.53862978 25.87927839 -49.58746433 25.87557125 C-44.59530958 25.883486 -39.77763964 26.16723297 -34.83413124 26.88261127 C-32.85602526 27.14648054 -32.85602526 27.14648054 -30.63989258 26.00292969 C-30.06392334 25.48118164 -29.4879541 24.95943359 -28.89453125 24.421875 C-28.22752197 23.84276367 -27.5605127 23.26365234 -26.87329102 22.66699219 C-25.85319946 21.71808105 -25.85319946 21.71808105 -24.8125 20.75 C-23.33994346 19.45673546 -21.86596178 18.16509198 -20.390625 16.875 C-19.66037109 16.22402344 -18.93011719 15.57304687 -18.17773438 14.90234375 C-14.91059367 12.04835716 -11.49826478 9.39644911 -8.0625 6.75 C-3.88603367 3.54479695 -3.88603367 3.54479695 0 0 Z " fill="#1A4266" transform="translate(571,370)"/>
<path d="M0 0 C55.44 0 110.88 0 168 0 C168 13.86 168 27.72 168 42 C133.35 42 98.7 42 63 42 C63 55.2 63 68.4 63 82 C94.02 82 125.04 82 157 82 C157 95.53 157 109.06 157 123 C125.98 123 94.96 123 63 123 C63 136.53 63 150.06 63 164 C99.3 164 135.6 164 173 164 C173 177.86 173 191.72 173 206 C120.2 206 67.4 206 13 206 C13.06703125 192.27921875 13.1340625 178.5584375 13.203125 164.421875 C13.21883604 155.72650129 13.2315093 147.03129865 13.23046875 138.3359375 C13.22938192 124.53577594 13.24065111 110.73642115 13.33251953 96.93652344 C13.39937564 86.88523756 13.42387435 76.83488003 13.39809489 66.78338933 C13.38591498 61.46365433 13.39454695 56.14583506 13.4539566 50.82637787 C13.50928821 45.81202207 13.50768323 40.80080655 13.46369362 35.78636932 C13.45741104 33.95304619 13.47136877 32.11951588 13.50784111 30.2865448 C13.66801959 21.69887355 13.77717091 15.00881715 7.60562682 8.52375913 C5.97438688 6.99928964 4.3040437 5.56335418 2.57387924 4.15279007 C1.72449909 3.44236935 0.87511894 2.73194862 0 2 C0 1.34 0 0.68 0 0 Z " fill="#1D4467" transform="translate(624,396)"/>
<path d="M0 0 C4.11070314 0.19659885 6.38780861 2.91818472 9.25 5.625 C10.23778292 6.54740894 11.22606609 7.46928246 12.21484375 8.390625 C13.13394531 9.25171875 14.05304688 10.1128125 15 11 C18.66409514 14.2855434 22.3970616 17.49054625 26.1484375 20.67578125 C32.81121954 26.34171759 39.36544246 32.08550289 45.73706055 38.07885742 C48.72202686 40.90908092 48.72202686 40.90908092 52.14132309 43.16128254 C54.52747177 45.5218075 54.47909854 47.32759808 54.51632524 50.59569377 C54.49884819 51.74403405 54.49884819 51.74403405 54.48101807 52.91557312 C54.48443577 53.73076331 54.48785347 54.54595351 54.49137473 55.38584644 C54.49798174 58.12696952 54.47593153 60.86712092 54.45410156 63.6081543 C54.45297369 65.56916277 54.45360576 67.53017293 54.45587158 69.49118042 C54.45702202 74.82362444 54.43345938 80.15571056 54.40557575 85.4880712 C54.38061693 91.05744358 54.37822446 96.62682362 54.37347412 102.19624329 C54.3610281 112.74663941 54.32818445 123.29687028 54.28807616 133.84719354 C54.23506151 148.10106092 54.21342613 162.35497331 54.19006729 176.60891438 C54.15242424 199.07273343 54.07274415 221.53620371 54 244 C103.17 244 152.34 244 203 244 C203 248.29 203 252.58 203 257 C132.71 257 62.42 257 -10 257 C-10 249.08 -10 241.16 -10 233 C-10.99 232.67 -11.98 232.34 -13 232 C-12.34 231.67 -11.68 231.34 -11 231 C-11.33 192.72 -11.66 154.44 -12 115 C-13.65 117.64 -15.3 120.28 -17 123 C-19.1875 125.5 -19.1875 125.5 -21 127 C-21.66 127 -22.32 127 -23 127 C-23 111.82 -23 96.64 -23 81 C-29.58704129 84.59293161 -35.90759691 88.07505083 -42.125 92.1875 C-43.59365252 93.14858647 -45.06240546 94.10951952 -46.53125 95.0703125 C-47.26988281 95.55532227 -48.00851562 96.04033203 -48.76953125 96.54003906 C-51.66793358 98.43719821 -54.57944124 100.31351974 -57.49365234 102.1862793 C-58.90961628 103.10057354 -60.3214589 104.02128361 -61.72900391 104.94848633 C-65.21732584 107.24322063 -68.71712916 109.42767728 -72.3671875 111.45703125 C-79.85403817 115.49898158 -79.85403817 115.49898158 -84.15234375 122.515625 C-84.41045467 125.78267275 -84.40215182 128.75224224 -84 132 C-87.63 132 -91.26 132 -95 132 C-95 110.88 -95 89.76 -95 68 C-89.245625 67.95875 -83.49125 67.9175 -77.5625 67.875 C-75.76498291 67.85679199 -73.96746582 67.83858398 -72.11547852 67.81982422 C-70.66162411 67.81397306 -69.20776639 67.80887899 -67.75390625 67.8046875 C-66.65701477 67.7893396 -66.65701477 67.7893396 -65.53796387 67.77368164 C-60.13762993 67.77189315 -55.22187977 68.64616333 -50 70 C-50.02618408 69.20827393 -50.05236816 68.41654785 -50.0793457 67.60083008 C-50.18344122 64.00492283 -50.248369 60.40933269 -50.3125 56.8125 C-50.35439453 55.56662109 -50.39628906 54.32074219 -50.43945312 53.03710938 C-50.56383363 43.75832351 -50.56383363 43.75832351 -47.64453125 39.83203125 C-46.77183594 39.22746094 -45.89914062 38.62289062 -45 38 C-44.10651396 36.97414566 -43.22695524 35.93559734 -42.375 34.875 C-37.8671469 29.4181252 -37.8671469 29.4181252 -35.13623047 28.10131836 C-32.94569624 26.97200409 -31.26672133 25.71210552 -29.3828125 24.12890625 C-28.35812866 23.27474121 -28.35812866 23.27474121 -27.31274414 22.40332031 C-26.22981079 21.49211426 -26.22981079 21.49211426 -25.125 20.5625 C-18.92554971 15.39506364 -12.67022111 10.32171434 -6.29150391 5.37719727 C-4.08480235 3.66223151 -1.97866234 1.97866234 0 0 Z " fill="#59BA87" transform="translate(571,370)"/>
<path d="M0 0 C1.86978516 0.36544922 1.86978516 0.36544922 3.77734375 0.73828125 C20.54224231 4.51351454 35.22756812 13.73326131 48 25 C48.97195313 25.84949219 49.94390625 26.69898438 50.9453125 27.57421875 C51.62335938 28.37472656 52.30140625 29.17523438 53 30 C52.5017688 34.53299082 49.41098547 36.95127271 46.28515625 39.97265625 C45.71421738 40.53697861 45.1432785 41.10130096 44.55503845 41.682724 C42.73115477 43.48322196 40.89741908 45.27325557 39.0625 47.0625 C37.2329068 48.85699654 35.40547812 50.65362221 33.58067322 52.45298767 C32.44530573 53.57142086 31.30687002 54.68674986 30.16505432 55.79859924 C27.81312586 58.10614781 25.83535184 60.24697224 24 63 C20.44723055 61.48317834 18.1357298 59.36280005 15.375 56.6875 C10.60395797 52.31638355 5.94814483 49.47921028 0 47 C-0.68964844 46.70480469 -1.37929688 46.40960938 -2.08984375 46.10546875 C-16.41053786 40.3488333 -34.68180789 39.30662984 -49.1953125 44.75390625 C-50.12085938 45.16511719 -51.04640625 45.57632813 -52 46 C-52.92554688 46.40089844 -53.85109375 46.80179687 -54.8046875 47.21484375 C-69.90364716 54.59323055 -81.4023906 68.25541326 -87 84 C-91.98173141 101.80754248 -89.44046871 121.04455927 -80.69921875 137.25 C-71.21885434 152.59293458 -58.36086657 161.3176086 -41 166 C-30.30483457 168.24926181 -18.06446413 168.43914757 -8 164 C-6.515 163.50693359 -6.515 163.50693359 -5 163.00390625 C6.64843785 159.03409665 14.74499884 151.93285814 24 144 C33.9 153.9 43.8 163.8 54 174 C48.25298611 188.36753473 31.39964272 196.82861525 18 203 C17.20851563 203.39058594 16.41703125 203.78117188 15.6015625 204.18359375 C10.79958939 206.48348613 6.22274892 207.73791029 0.96875 208.60546875 C-0.99447505 208.80968082 -0.99447505 208.80968082 -2 210 C-34.73210214 215.96316222 -67.00918731 211.25987097 -95 193 C-117.5727611 176.84780743 -135.38541129 152.72045653 -140.109375 124.96875 C-142.57551841 107.88015683 -142.84699694 89.39825525 -137 73 C-136.42185547 71.28876953 -136.42185547 71.28876953 -135.83203125 69.54296875 C-125.87656958 41.86742968 -104.87584031 20.380214 -78.625 7.6875 C-70.3472389 3.85884633 -61.84560521 1.16906396 -53 -1 C-52.03449219 -1.24621094 -51.06898438 -1.49242187 -50.07421875 -1.74609375 C-33.75328029 -5.1708927 -16.1496888 -3.51215776 0 0 Z " fill="#1B4266" transform="translate(368,395)"/>
<path d="M0 0 C4.30256393 -0.15836691 8.60355704 -0.27362882 12.90817261 -0.35018921 C14.37018402 -0.38212179 15.83199385 -0.42553332 17.29330444 -0.48092651 C29.368034 -0.92695738 29.368034 -0.92695738 33.2922821 1.30201721 C35.92979291 3.95289813 37.77807835 6.98421776 39.03515625 10.51171875 C41.1358517 15.646375 44.241102 19.77628304 47.5625 24.1875 C49.11934905 26.33070122 50.67027313 28.47645451 52.19995117 30.63916016 C54.01392959 33.10421033 54.01392959 33.10421033 56.40356445 35.54443359 C63.17619625 43.15411735 63.99805398 48.96901125 63.46899414 58.72753906 C63.33485107 60.54995117 63.20070801 62.37236328 63.0625 64.25 C62.711875 70.1075 62.36125 75.965 62 82 C45.17 82 28.34 82 11 82 C10.34 85.3 9.68 88.6 9 92 C7.8515625 95.21484375 7.8515625 95.21484375 6.625 97.9375 C3.75288567 104.51447187 1.26915045 111.19254864 -1 118 C-1.66 118 -2.32 118 -3 118 C-3.12689209 118.72469482 -3.25378418 119.44938965 -3.38452148 120.19604492 C-3.98109622 122.91387945 -4.80140772 125.28917773 -5.84765625 127.86328125 C-6.20537109 128.74951172 -6.56308594 129.63574219 -6.93164062 130.54882812 C-7.30482422 131.46083984 -7.67800781 132.37285156 -8.0625 133.3125 C-8.62807617 134.70952148 -8.62807617 134.70952148 -9.20507812 136.13476562 C-10.13283125 138.42478917 -11.06458001 140.71309996 -12 143 C-13.32 143 -14.64 143 -16 143 C-19.78973553 132.32151275 -23.51986143 121.62467501 -27.18133545 110.90155029 C-30.71692505 100.54934167 -34.25623197 90.19848576 -37.875 79.875 C-38.14256104 79.1113916 -38.41012207 78.3477832 -38.68579102 77.56103516 C-40.01769091 73.76925278 -41.36274321 69.98244715 -42.71875 66.19921875 C-42.99734863 65.41885254 -43.27594727 64.63848633 -43.56298828 63.83447266 C-44.08425639 62.37598768 -44.60842122 60.91853292 -45.13623047 59.46240234 C-46.37358335 55.99902313 -47.39830636 52.63115118 -48 49 C-50.59692833 51.28794535 -51.73068635 53.33569784 -52.9375 56.5625 C-53.44603516 57.89474609 -53.44603516 57.89474609 -53.96484375 59.25390625 C-54.30644531 60.16011719 -54.64804687 61.06632813 -55 62 C-55.66266369 63.66826229 -56.32925371 65.33497098 -57 67 C-57.66 68.65 -58.32 70.3 -59 72 C-60.32 75.3 -61.64 78.6 -63 82 C-122.73 82 -182.46 82 -244 82 C-244 77.71 -244 73.42 -244 69 C-187.24 68.67 -130.48 68.34 -72 68 C-69.03 60.74 -66.06 53.48 -63 46 C-60.4375 39.875 -60.4375 39.875 -59.328125 37.2265625 C-56.15241079 29.51144503 -53.08564468 21.75148905 -50 14 C-47 15 -47 15 -45.52734375 17.796875 C-44.98313921 19.1087597 -44.4546546 20.4272184 -43.9375 21.75 C-43.49132324 22.8647168 -43.49132324 22.8647168 -43.03613281 24.00195312 C-37.1249927 39.06485839 -32.15110894 54.50170599 -27.0546875 69.85546875 C-26.68682129 70.96288925 -26.68682129 70.96288925 -26.31152344 72.09268188 C-25.12058235 75.67983071 -23.93370741 79.26822553 -22.75488281 82.859375 C-20.622871 89.32711267 -18.42203192 95.72154297 -15.76806641 101.99682617 C-14.76251852 104.6193692 -14.29333251 107.21334119 -14 110 C-13.34 110 -12.68 110 -12 110 C-11.82404297 108.70835937 -11.82404297 108.70835937 -11.64453125 107.390625 C-10.9903505 103.94923781 -9.98078826 101.0012386 -8.6875 97.75 C-8.02041016 96.06003906 -8.02041016 96.06003906 -7.33984375 94.3359375 C-6.89769531 93.23507812 -6.45554687 92.13421875 -6 91 C-5.60941406 90.02289062 -5.21882812 89.04578125 -4.81640625 88.0390625 C-4.14662089 86.36582582 -3.47388452 84.69376427 -2.796875 83.0234375 C-1.10956177 78.73898527 -0.83109854 75.04641984 -0.79467773 70.49926758 C-0.78477814 69.73805099 -0.77487854 68.97683441 -0.76467896 68.19255066 C-0.73309271 65.67657582 -0.70831791 63.16058211 -0.68359375 60.64453125 C-0.66302174 58.90003468 -0.6420252 57.15554307 -0.62062073 55.41105652 C-0.56542558 50.81946833 -0.51600501 46.22783535 -0.46777344 41.63616943 C-0.41753976 36.95076511 -0.36186343 32.26542583 -0.30664062 27.58007812 C-0.19909032 18.38677432 -0.09763838 9.19341404 0 0 Z " fill="#8CC555" transform="translate(487,545)"/>
<path d="M0 0 C0.1272297 7.8102877 0.21453219 15.62030614 0.2746582 23.43139648 C0.29690216 26.08651565 0.33379633 28.74027268 0.37719727 31.39526367 C0.43814632 35.22071295 0.46628003 39.04524591 0.48828125 42.87109375 C0.51408768 44.04957382 0.5398941 45.22805389 0.56648254 46.44224548 C0.56949472 55.37920176 -1.54605468 61.51744546 -7.6875 68.0625 C-10 70 -10 70 -12 70 C-12 54.82 -12 39.64 -12 24 C-18.58704129 27.59293161 -24.90759691 31.07505083 -31.125 35.1875 C-32.59365252 36.14858647 -34.06240546 37.10951952 -35.53125 38.0703125 C-36.26988281 38.55532227 -37.00851562 39.04033203 -37.76953125 39.54003906 C-40.66793358 41.43719821 -43.57944124 43.31351974 -46.49365234 45.1862793 C-47.90961628 46.10057354 -49.3214589 47.02128361 -50.72900391 47.94848633 C-54.21732584 50.24322063 -57.71712916 52.42767728 -61.3671875 54.45703125 C-68.85403817 58.49898158 -68.85403817 58.49898158 -73.15234375 65.515625 C-73.41045467 68.78267275 -73.40215182 71.75224224 -73 75 C-76.63 75 -80.26 75 -84 75 C-84 53.88 -84 32.76 -84 11 C-78.245625 10.95875 -72.49125 10.9175 -66.5625 10.875 C-64.76498291 10.85679199 -62.96746582 10.83858398 -61.11547852 10.81982422 C-59.66162411 10.81397306 -58.20776639 10.80887899 -56.75390625 10.8046875 C-56.02264526 10.79445557 -55.29138428 10.78422363 -54.53796387 10.77368164 C-49.10170747 10.77188126 -44.27579133 11.6816224 -39 13 C-39 16.96 -39 20.92 -39 25 C-28.12388404 18.24048784 -17.39397565 11.33022715 -6.8815918 4.01489258 C-6.12402588 3.48919678 -5.36645996 2.96350098 -4.5859375 2.421875 C-3.9161084 1.95362305 -3.2462793 1.48537109 -2.55615234 1.00292969 C-1 0 -1 0 0 0 Z " fill="#FBFDFC" transform="translate(560,427)"/>
<path d="M0 0 C0.33 0 0.66 0 1 0 C1 21.12 1 42.24 1 64 C4.63 64 8.26 64 12 64 C11.87238281 63.154375 11.74476563 62.30875 11.61328125 61.4375 C10.82495497 52.4280568 10.82495497 52.4280568 13.88671875 48.70703125 C16.82495953 46.57691648 19.83902753 44.78366592 23 43 C24.20118449 42.25734108 25.39767833 41.50705222 26.58984375 40.75 C29.22832883 39.07477138 31.87816147 37.42064117 34.5390625 35.78125 C39.51250681 32.6999986 44.41270508 29.50913316 49.3125 26.3125 C50.16312012 25.75900879 51.01374023 25.20551758 51.89013672 24.63525391 C55.46966218 22.30552175 59.04603705 19.97160884 62.609375 17.6171875 C63.58390625 16.98039062 64.5584375 16.34359375 65.5625 15.6875 C66.36816406 15.15511719 67.17382812 14.62273437 68.00390625 14.07421875 C70 13 70 13 73 13 C73.33 28.51 73.66 44.02 74 60 C66.23266143 63.10693543 61.05938046 65.13074814 53.01635742 65.11352539 C51.2204718 65.11334412 51.2204718 65.11334412 49.38830566 65.11315918 C48.13996948 65.10804321 46.8916333 65.10292725 45.60546875 65.09765625 C44.45067017 65.09664917 43.29587158 65.09564209 42.1060791 65.09460449 C37.79987594 65.08937972 33.49368695 65.07541845 29.1875 65.0625 C19.555625 65.041875 9.92375 65.02125 0 65 C0 43.55 0 22.1 0 0 Z " fill="#47B498" transform="translate(475,438)"/>
<path d="M0 0 C0.33 0 0.66 0 1 0 C1 65.67 1 131.34 1 199 C50.17 199 99.34 199 150 199 C150 203.29 150 207.58 150 212 C79.71 212 9.42 212 -63 212 C-63 210.35 -63 208.7 -63 207 C-62.34 207 -61.68 207 -61 207 C-61 207.99 -61 208.98 -61 210 C42.95 210.495 42.95 210.495 149 211 C149 207.7 149 204.4 149 201 C148.24424494 201.00092179 147.48848988 201.00184359 146.70983315 201.00279331 C128.34134615 201.02485421 109.9728618 201.04141433 91.6043644 201.05181217 C82.72158966 201.05697382 73.83882376 201.06401404 64.95605469 201.07543945 C57.21604353 201.08539027 49.47603877 201.09185438 41.7360214 201.09408849 C37.63575981 201.09539492 33.53551651 201.09847651 29.43526077 201.10573006 C25.57924286 201.11249653 21.72325084 201.11461567 17.86722755 201.11310768 C16.44901578 201.11338373 15.03080317 201.11538514 13.61259651 201.11920547 C11.68213648 201.12415242 9.75166269 201.12239527 7.82119751 201.12025452 C6.19792006 201.12163721 6.19792006 201.12163721 4.54184914 201.12304783 C2 201 2 201 0 200 C0 134 0 68 0 0 Z " fill="#A4D284" transform="translate(624,415)"/>
<path d="M0 0 C2.89620795 1.33775514 5.21482634 2.85373964 7.65234375 4.90625 C8.34054199 5.48076904 9.02874023 6.05528809 9.73779297 6.6472168 C10.46369629 7.25863525 11.18959961 7.87005371 11.9375 8.5 C18.33147663 13.83427368 24.80992818 19.00241426 31.4609375 24.01171875 C32.29882812 24.66785156 33.13671875 25.32398438 34 26 C34.60714844 26.42539062 35.21429687 26.85078125 35.83984375 27.2890625 C37.7808875 30.15161187 37.30865301 33.36045185 37.1875 36.6875 C37.16719727 37.7403418 37.16719727 37.7403418 37.14648438 38.81445312 C37.11120182 40.54329829 37.05739583 42.27174765 37 44 C33.01381919 42.28604019 29.79845206 39.62470438 26.4375 36.9375 C25.82052246 36.44870361 25.20354492 35.95990723 24.56787109 35.45629883 C19.82198311 31.68592046 15.11271691 27.87190604 10.48828125 23.953125 C8.09761829 21.9632782 8.09761829 21.9632782 5.54296875 20.671875 C3.01593158 19.27337457 1.6168169 18.4139031 0 16 C-0.67394056 10.58151792 -0.46413572 5.4278094 0 0 Z " fill="#F8FBF8" transform="translate(576,453)"/>
<path d="M0 0 C2.878418 1.3314565 5.19196251 2.83298322 7.6171875 4.87109375 C8.30031006 5.44053711 8.98343262 6.00998047 9.68725586 6.59667969 C10.40921143 7.20415039 11.13116699 7.81162109 11.875 8.4375 C18.07445029 13.60493636 24.32977889 18.67828566 30.70849609 23.62280273 C32.91519765 25.33776849 35.02133766 27.02133766 37 29 C37.14497985 31.58064129 37.18677545 34.04943884 37.125 36.625 C37.11597656 37.33140625 37.10695313 38.0378125 37.09765625 38.765625 C37.07407603 40.51056098 37.03820461 42.25532295 37 44 C33.82075366 42.55423413 31.32088812 40.77533649 28.625 38.5625 C25.02163189 35.63509607 21.40658843 32.72725387 17.75195312 29.86425781 C16.54091676 28.91198433 15.33516297 27.95295477 14.13476562 26.98730469 C11.51591923 24.89251631 9.00687935 23.0040292 6.10546875 21.3046875 C3.41608199 19.68682019 1.76511654 18.60890609 0 16 C-1.03998904 10.71512933 -0.51725729 5.31944842 0 0 Z " fill="#F6FAF8" transform="translate(576,425)"/>
<path d="M0 0 C2 0 2 0 4.15625 2.11328125 C4.59710937 2.5717041 5.03796875 3.03012695 5.4921875 3.50244141 C8.29945246 6.29061551 11.4193941 8.7105639 14.5 11.1875 C15.54426147 12.03199707 15.54426147 12.03199707 16.60961914 12.89355469 C22.21314826 17.40802264 27.89350578 21.81636827 33.62109375 26.171875 C36 28 36 28 37 29 C37.07313567 31.53049402 37.09247527 34.03304837 37.0625 36.5625 C37.05798828 37.27341797 37.05347656 37.98433594 37.04882812 38.71679688 C37.03700864 40.47790013 37.01907263 42.23896036 37 44 C32.56101849 42.55834912 29.49675522 40.11241046 26.0625 37.0625 C20.21408521 31.98669337 14.2042537 27.16535973 8.09375 22.41015625 C7.0728125 21.61480469 6.051875 20.81945312 5 20 C4.04738281 19.40574219 3.09476563 18.81148437 2.11328125 18.19921875 C0 16 0 16 -0.48828125 12.109375 C-0.45523738 10.6554446 -0.39586963 9.20191425 -0.3125 7.75 C-0.28994141 7.00492188 -0.26738281 6.25984375 -0.24414062 5.4921875 C-0.18543561 3.660591 -0.09575757 1.83003347 0 0 Z " fill="#F8FBF7" transform="translate(576,509)"/>
<path d="M0 0 C6.06946637 4.48225235 11.95955181 9.14132109 17.75390625 13.97314453 C21.04538817 16.69488806 24.30587828 19.2664201 27.92578125 21.5390625 C36.42269443 27.0008792 36.42269443 27.0008792 37.54541016 30.88867188 C38.09463324 35.32866269 37.68916556 39.58227208 37 44 C33.55343171 42.77245513 31.15360334 41.50886134 28.5 39 C25.03095292 35.85107215 21.41269314 32.96131961 17.6875 30.125 C17.13682861 29.69461426 16.58615723 29.26422852 16.01879883 28.82080078 C13.30803637 26.70861071 10.6284393 24.76467823 7.71875 22.921875 C0.48376483 18.03639532 0.48376483 18.03639532 -0.46386719 14.04736328 C-0.93507164 9.31293122 -0.5721471 4.71009988 0 0 Z " fill="#F8FBF7" transform="translate(576,481)"/>
<path d="M0 0 C2.76781937 1.28005542 4.94703013 2.65402364 7.21484375 4.6875 C8.11130615 5.48136108 8.11130615 5.48136108 9.02587891 6.29125977 C9.65671387 6.85514404 10.28754883 7.41902832 10.9375 8 C16.85192772 13.21267905 22.90296241 18.13162432 29.1953125 22.87890625 C30.12085938 23.57886719 31.04640625 24.27882813 32 25 C32.93972656 25.59167969 33.87945313 26.18335938 34.84765625 26.79296875 C37 29 37 29 37.48828125 32.671875 C37.4552658 34.0321116 37.39593571 35.39192338 37.3125 36.75 C37.28994141 37.44738281 37.26738281 38.14476562 37.24414062 38.86328125 C37.18547048 40.57644935 37.09579256 42.28850623 37 44 C33.01390369 42.28607652 29.79818819 39.62495139 26.4375 36.9375 C25.82052246 36.44797852 25.20354492 35.95845703 24.56787109 35.45410156 C19.83661604 31.69107496 15.1072009 27.92385853 10.48828125 24.0234375 C8.0709446 21.98236959 8.0709446 21.98236959 5.54296875 20.4140625 C3.09323798 18.72370537 1.58006555 17.5360716 0 15 C-0.66003955 9.90449468 -0.47286248 5.10297427 0 0 Z " fill="#F9FCF9" transform="translate(576,397)"/>
<path d="M0 0 C3.45036627 1.52995456 6.0570354 3.5743456 8.9375 6 C13.12860946 9.47951735 17.36869081 12.86819384 21.6875 16.1875 C22.23422363 16.61716064 22.78094727 17.04682129 23.34423828 17.48950195 C25.69405499 19.32159251 27.99072279 20.99487385 30.6015625 22.4375 C33.03517465 23.8133938 34.4393513 24.66593247 36 27 C36.66139711 32.09222001 36.46722834 36.899424 36 42 C31.073233 40.44863253 27.66244405 37.54965226 23.75 34.3125 C22.41177545 33.2235685 21.07323506 32.13502503 19.734375 31.046875 C19.09177734 30.52158203 18.44917969 29.99628906 17.78710938 29.45507812 C15.54576651 27.63015961 13.27975977 25.83914038 11 24.0625 C10.32066406 23.5159375 9.64132812 22.969375 8.94140625 22.40625 C7.05085039 20.94161124 7.05085039 20.94161124 4.90234375 20.03125 C2.54091872 18.86696887 1.43891779 18.23529996 0 16 C-0.59964619 10.60318428 -0.4001621 5.4053643 0 0 Z " fill="#FAFCF8" transform="translate(577,538)"/>
<path d="M0 0 C33.66 0 67.32 0 102 0 C102 0.33 102 0.66 102 1 C68.67 1 35.34 1 1 1 C1 50.17 1 99.34 1 150 C1.66 150 2.32 150 3 150 C2.625 151.9375 2.625 151.9375 2 154 C1.34 154.33 0.68 154.66 0 155 C0 103.85 0 52.7 0 0 Z " fill="#5F7B94" transform="translate(427,396)"/>
<path d="M0 0 C0.66 0 1.32 0 2 0 C2 0.99 2 1.98 2 3 C71.63 3.33 141.26 3.66 213 4 C213 4.33 213 4.66 213 5 C142.71 5 72.42 5 0 5 C0 3.35 0 1.7 0 0 Z " fill="#B3D785" transform="translate(561,622)"/>
<path d="M0 0 C0.66 0 1.32 0 2 0 C2 0.99 2 1.98 2 3 C32.195 3.495 32.195 3.495 63 4 C63 4.33 63 4.66 63 5 C42.21 5 21.42 5 0 5 C0 3.35 0 1.7 0 0 Z " fill="#B4D483" transform="translate(561,622)"/>
<path d="M0 0 C0.66 0.33 1.32 0.66 2 1 C-1.75 5.875 -1.75 5.875 -4 7 C-4.33 15.91 -4.66 24.82 -5 34 C-6.32 33.67 -7.64 33.34 -9 33 C-8.01 33 -7.02 33 -6 33 C-6.0314209 32.17798096 -6.0628418 31.35596191 -6.09521484 30.5090332 C-6.22009441 26.77713649 -6.29802723 23.04567922 -6.375 19.3125 C-6.42527344 18.01892578 -6.47554687 16.72535156 -6.52734375 15.39257812 C-6.67307052 5.9932012 -6.67307052 5.9932012 -4.63769531 2.98974609 C-2.9765625 1.60546875 -2.9765625 1.60546875 0 0 Z " fill="#256680" transform="translate(526,406)"/>
<path d="M0 0 C0.33 0 0.66 0 1 0 C1.16768422 3.93745736 1.3339732 7.87497243 1.5 11.8125 C1.57154297 13.49182617 1.57154297 13.49182617 1.64453125 15.20507812 C1.68964844 16.27822266 1.73476563 17.35136719 1.78125 18.45703125 C1.82314453 19.44678955 1.86503906 20.43654785 1.90820312 21.45629883 C1.97485575 23.30325026 2 25.15184629 2 27 C1.34 27 0.68 27 0 27 C0 18.09 0 9.18 0 0 Z " fill="#39B0A7" transform="translate(521,425)"/>
<path d="M0 0 C0.66 0 1.32 0 2 0 C2 0.99 2 1.98 2 3 C8.93 3.495 8.93 3.495 16 4 C16 4.33 16 4.66 16 5 C10.72 5 5.44 5 0 5 C0 3.35 0 1.7 0 0 Z " fill="#A6D06C" transform="translate(561,622)"/>
<path d="M0 0 C2.0324001 4.06480019 2.09275351 5.64058493 2 10 C2.33 10.99 2.66 11.98 3 13 C2.34 13.66 1.68 14.32 1 15 C0.01 14.67 -0.98 14.34 -2 14 C-1.34 14 -0.68 14 0 14 C0 9.38 0 4.76 0 0 Z " fill="#7EC36B" transform="translate(613,566)"/>
<path d="M0 0 C0.66 0 1.32 0 2 0 C3.48901182 4.46703546 1.93473185 8.06595482 -0.07421875 12.22265625 C-0.37972656 12.80917969 -0.68523437 13.39570313 -1 14 C-1.027193 12.41676312 -1.04648306 10.83338938 -1.0625 9.25 C-1.07410156 8.36828125 -1.08570313 7.4865625 -1.09765625 6.578125 C-1.00826198 4.2181162 -0.66912821 2.25501476 0 0 Z " fill="#143656" transform="translate(229,476)"/>
<path d="M0 0 C2 1 2 1 2 1 Z M-1 1 C-1 5.38968456 -3.12805101 6.76905739 -6 10 C-6.33 8.68 -6.66 7.36 -7 6 C-5.02 4.35 -3.04 2.7 -1 1 Z " fill="#143C60" transform="translate(254,431)"/>
<path d="M0 0 C0.99 0.33 1.98 0.66 3 1 C2.67 1.66 2.34 2.32 2 3 C1.77141886 5.0374763 1.58975722 7.08040303 1.4375 9.125 C1.35371094 10.22070312 1.26992188 11.31640625 1.18359375 12.4453125 C1.12300781 13.28835938 1.06242188 14.13140625 1 15 C0.67 15 0.34 15 0 15 C0 10.05 0 5.1 0 0 Z " fill="#D6ECEC" transform="translate(576,397)"/>
<path d="M0 0 C0.33 0.99 0.66 1.98 1 3 C0.67 3.66 0.34 4.32 0 5 C-1.32 5 -2.64 5 -4 5 C-3.6875 3.0625 -3.6875 3.0625 -3 1 C-2.01 0.67 -1.02 0.34 0 0 Z " fill="#B7D244" transform="translate(475,683)"/>
<path d="M0 0 C1.134375 0.020625 2.26875 0.04125 3.4375 0.0625 C3.4375 0.3925 3.4375 0.7225 3.4375 1.0625 C2.07625 1.4646875 2.07625 1.4646875 0.6875 1.875 C-2.27721963 2.95826294 -4.1794754 4.04609457 -6.5625 6.0625 C-4.25951087 0.07472826 -4.25951087 0.07472826 0 0 Z " fill="#C9D5D8" transform="translate(438.5625,536.9375)"/>
<path d="M0 0 C0.66 1.32 1.32 2.64 2 4 C0.68 5.32 -0.64 6.64 -2 8 C-2.33 7.34 -2.66 6.68 -3 6 C-2.06553465 3.96855359 -1.06775224 1.96466413 0 0 Z " fill="#315877" transform="translate(237,453)"/>
<path d="M0 0 C0.33 0.66 0.66 1.32 1 2 C1.66 2 2.32 2 3 2 C3 2.99 3 3.98 3 5 C3.99 5.33 4.98 5.66 6 6 C5.01 6.495 5.01 6.495 4 7 C2.02 5.35 0.04 3.7 -2 2 C-1.34 1.34 -0.68 0.68 0 0 Z " fill="#37B9C4" transform="translate(587,402)"/>
<path d="M0 0 C0.66 0.33 1.32 0.66 2 1 C-1.625 5.875 -1.625 5.875 -5 7 C-4.60196439 4.11424181 -4.20990931 3.17810487 -1.9375 1.25 C-1.298125 0.8375 -0.65875 0.425 0 0 Z " fill="#18A0B1" transform="translate(526,406)"/>
</svg>
